<?xml version="1.0" encoding="utf-8"?>
<!-- Generator: Adobe Illustrator 24.3.0, SVG Export Plug-In . SVG Version: 6.00 Build 0)  -->
<svg version="1.1" id="레이어_1" xmlns="http://www.w3.org/2000/svg" xmlns:xlink="http://www.w3.org/1999/xlink" x="0px"
	 y="0px" viewBox="0 0 19 16" style="enable-background:new 0 0 19 16;" xml:space="preserve">
<style type="text/css">
	.st0{fill:#999999;stroke:#999999;stroke-width:0.8;stroke-miterlimit:10;}
</style>
<g>
	<path class="st0" d="M17.69,8.03L9.75,0.79c-0.14-0.13-0.36-0.13-0.5,0L1.31,8.03C1.16,8.16,1.15,8.4,1.29,8.55
		C1.43,8.7,1.66,8.71,1.81,8.57l1.71-1.56v7.68c0,0.2,0.17,0.37,0.37,0.37h3.54h4.09h3.54c0.2,0,0.37-0.17,0.37-0.37V6.99l1.74,1.59
		c0.07,0.06,0.16,0.1,0.25,0.1c0.1,0,0.2-0.04,0.27-0.12C17.85,8.4,17.84,8.16,17.69,8.03z M7.81,14.33V9.94
		c0-0.89,0.72-1.61,1.61-1.61h0.13c0.89,0,1.61,0.72,1.61,1.61v4.39H7.81z M14.7,14.33h-2.8V9.94c0-1.3-1.05-2.35-2.35-2.35H9.42
		c-1.3,0-2.35,1.05-2.35,2.35v4.39h-2.8V6.34L9.5,1.57l5.2,4.74V14.33z"/>
</g>
</svg>
